<svg width="367" height="263" viewBox="0 0 367 263" fill="none" xmlns="http://www.w3.org/2000/svg">
<g filter="url(#filter0_d_55_240)">
<ellipse cx="103" cy="92" rx="63" ry="92" fill="white"/>
<path d="M165.5 92C165.5 117.317 158.472 140.216 147.135 156.771C135.797 173.329 120.184 183.5 103 183.5C85.816 183.5 70.2032 173.329 58.8648 156.771C47.528 140.216 40.5 117.317 40.5 92C40.5 66.6826 47.528 43.784 58.8648 27.2287C70.2032 10.671 85.816 0.5 103 0.5C120.184 0.5 135.797 10.671 147.135 27.2287C158.472 43.784 165.5 66.6826 165.5 92Z" stroke="#333333"/>
</g>
<circle cx="114" cy="77" r="50" fill="#003366" fill-opacity="0.9"/>
<g filter="url(#filter1_d_55_240)">
<ellipse cx="229" cy="92" rx="63" ry="92" fill="white"/>
<path d="M291.5 92C291.5 117.317 284.472 140.216 273.135 156.771C261.797 173.329 246.184 183.5 229 183.5C211.816 183.5 196.203 173.329 184.865 156.771C173.528 140.216 166.5 117.317 166.5 92C166.5 66.6826 173.528 43.784 184.865 27.2287C196.203 10.671 211.816 0.5 229 0.5C246.184 0.5 261.797 10.671 273.135 27.2287C284.472 43.784 291.5 66.6826 291.5 92Z" stroke="#333333"/>
</g>
<circle cx="240" cy="77" r="50" fill="#003366" fill-opacity="0.9"/>
<path fill-rule="evenodd" clip-rule="evenodd" d="M297.856 33.234C297.042 34.048 296.104 34.6624 295.103 35.0771L301.392 41.3658L293.119 49.6389C294.725 49.9505 296.259 50.7283 297.503 51.9724C300.822 55.2918 300.822 60.6737 297.503 63.9932C294.183 67.3126 288.801 67.3126 285.482 63.9932C284.238 62.7491 283.46 61.2154 283.148 59.6091L278.057 64.7003L272.221 58.8641C272.282 58.8071 272.341 58.749 272.4 58.6898C275.72 55.3704 275.72 49.9885 272.4 46.669C269.081 43.3496 263.699 43.3496 260.38 46.669C260.32 46.7282 260.262 46.788 260.205 46.8484L254.369 41.0122L259.46 35.921C257.854 35.6095 256.32 34.8316 255.076 33.5876C251.757 30.2681 251.757 24.8862 255.076 21.5668C258.396 18.2473 263.778 18.2473 267.097 21.5668C268.341 22.8108 269.119 24.3446 269.431 25.9509L277.704 17.6777L283.992 23.9663C284.407 22.9651 285.021 22.0272 285.835 21.2132C289.155 17.8937 294.537 17.8937 297.856 21.2132C301.176 24.5327 301.176 29.9146 297.856 33.234Z" fill="#FF9900"/>
<path d="M9.26688 260.573C8.43488 260.573 7.82688 260.173 7.44288 259.373C7.05888 258.573 6.86688 257.149 6.86688 255.101C6.86688 252.221 7.04288 249.181 7.39488 245.981C7.77888 242.749 8.27488 239.261 8.88288 235.517C9.42688 232.541 10.7229 230.253 12.7709 228.653C14.8509 227.053 17.6349 225.741 21.1229 224.717C23.2989 224.077 25.5549 223.485 27.8909 222.941C30.2269 222.397 32.4189 221.965 34.4669 221.645C36.5469 221.293 38.2589 221.117 39.6029 221.117C40.6269 221.117 41.4269 221.277 42.0029 221.597C42.5789 221.917 42.9789 222.317 43.2029 222.797C43.4589 223.245 43.5869 223.661 43.5869 224.045C43.5869 224.653 43.4429 225.197 43.1549 225.677C42.8669 226.157 42.2429 226.525 41.2829 226.781C40.8669 226.909 39.9869 227.133 38.6429 227.453C37.3309 227.741 35.7149 228.093 33.7949 228.509C31.9069 228.925 29.9069 229.373 27.7949 229.853C25.6829 230.301 23.6349 230.765 21.6509 231.245C19.6989 231.821 18.2589 232.525 17.3309 233.357C16.4349 234.157 15.8429 235.325 15.5549 236.861C15.4909 237.181 15.4269 237.629 15.3629 238.205C16.6749 237.789 18.0829 237.453 19.5869 237.197C21.0909 236.941 22.4829 236.749 23.7629 236.621C25.0429 236.493 25.9869 236.429 26.5949 236.429C27.2349 236.429 27.9069 236.541 28.6109 236.765C29.3469 236.957 29.9709 237.261 30.4829 237.677C31.0269 238.061 31.2989 238.557 31.2989 239.165C31.2989 239.741 31.0749 240.269 30.6269 240.749C30.1789 241.197 29.2669 241.629 27.8909 242.045C27.6029 242.141 26.9469 242.269 25.9229 242.429C24.9309 242.589 23.7469 242.797 22.3709 243.053C21.0269 243.277 19.6509 243.533 18.2429 243.821C16.8669 244.109 15.6509 244.413 14.5949 244.733C14.3709 246.461 14.1629 248.189 13.9709 249.917C13.7789 251.645 13.6189 253.149 13.4909 254.429C13.3629 255.677 13.2669 256.461 13.2029 256.781C13.0109 257.965 12.5469 258.893 11.8109 259.565C11.0749 260.237 10.2269 260.573 9.26688 260.573ZM46.4429 261.773C44.1709 261.773 42.3469 260.973 40.9709 259.373C39.5949 257.741 38.9069 255.565 38.9069 252.845C38.9069 251.981 39.0189 251.101 39.2429 250.205C39.4989 249.309 39.8029 248.477 40.1549 247.709C39.9629 247.421 39.8029 247.053 39.6749 246.605C39.5789 246.125 39.5309 245.565 39.5309 244.925C39.5309 242.845 39.8989 240.941 40.6349 239.213C41.3709 237.453 42.3629 235.933 43.6109 234.653C44.8589 233.373 46.2349 232.381 47.7389 231.677C49.2429 230.973 50.7629 230.621 52.2989 230.621C54.9229 230.621 57.0669 231.501 58.7309 233.261C60.4269 235.021 61.2749 237.757 61.2749 241.469C61.2749 243.325 60.9869 245.213 60.4109 247.133C59.8349 249.053 59.0509 250.893 58.0589 252.653C57.0989 254.381 55.9789 255.933 54.6989 257.309C53.4509 258.685 52.1069 259.773 50.6669 260.573C49.2589 261.373 47.8509 261.773 46.4429 261.773ZM45.6749 245.549C45.8349 245.901 45.9149 246.317 45.9149 246.797C45.9149 247.277 45.8189 247.773 45.6269 248.285C45.4349 248.797 45.2429 249.485 45.0509 250.349C44.8589 251.181 44.7629 252.381 44.7629 253.949C44.7629 254.365 44.8109 254.717 44.9069 255.005C45.0349 255.261 45.3069 255.389 45.7229 255.389C46.8109 255.389 47.8349 255.037 48.7949 254.333C49.7869 253.629 50.6669 252.701 51.4349 251.549C52.2349 250.397 52.9069 249.117 53.4509 247.709C54.0269 246.269 54.4589 244.813 54.7469 243.341C55.0669 241.837 55.2269 240.445 55.2269 239.165C55.2269 238.333 55.0669 237.757 54.7469 237.437C54.4269 237.117 53.8669 236.957 53.0669 236.957C51.9789 236.957 50.8589 237.309 49.7069 238.013C48.5869 238.685 47.6429 239.613 46.8749 240.797C46.1069 241.949 45.7229 243.261 45.7229 244.733C45.7229 245.021 45.7069 245.293 45.6749 245.549ZM75.0164 261.533C73.2244 261.533 71.6724 261.117 70.3604 260.285C69.0484 259.485 68.0404 258.445 67.3364 257.165C66.6324 255.853 66.2804 254.509 66.2804 253.133C66.2804 250.829 66.6324 248.701 67.3364 246.749C68.0404 244.765 68.9684 242.973 70.1204 241.373C71.2724 239.741 72.5204 238.301 73.8644 237.053C75.2404 235.805 76.5684 234.765 77.8484 233.933C79.1604 233.069 80.3284 232.429 81.3524 232.013C82.3764 231.565 83.1284 231.341 83.6084 231.341C84.4724 231.341 85.0804 231.533 85.4324 231.917C85.8164 232.269 86.0084 232.861 86.0084 233.693C86.0084 234.173 85.6564 234.749 84.9524 235.421C84.2804 236.093 83.3844 236.861 82.2644 237.725C81.1764 238.589 80.0244 239.565 78.8084 240.653C77.5924 241.741 76.4244 242.957 75.3044 244.301C74.2164 245.645 73.3204 247.117 72.6164 248.717C71.9444 250.317 71.6084 252.061 71.6084 253.949C71.6084 254.653 71.7364 255.197 71.9924 255.581C72.2804 255.965 72.7444 256.157 73.3844 256.157C75.2084 256.157 77.1604 255.837 79.2404 255.197C81.3524 254.525 83.4484 253.693 85.5284 252.701C87.6404 251.677 89.6244 250.621 91.4804 249.533C93.3684 248.445 94.9844 247.469 96.3284 246.605C96.8724 246.221 97.3364 245.917 97.7204 245.693C98.1044 245.469 98.3764 245.357 98.5364 245.357C99.4964 245.357 99.9764 245.853 99.9764 246.845C99.9764 247.357 99.5924 248.045 98.8244 248.909C97.9284 250.029 96.7124 251.181 95.1764 252.365C93.6724 253.549 91.9924 254.685 90.1364 255.773C88.3124 256.861 86.4404 257.837 84.5204 258.701C82.6324 259.565 80.8564 260.253 79.1924 260.765C77.5284 261.277 76.1364 261.533 75.0164 261.533ZM113.36 262.349C112.624 262.349 111.952 262.045 111.344 261.437C110.768 260.861 110.48 259.885 110.48 258.509C110.48 257.485 110.56 256.061 110.72 254.237C110.912 252.381 111.264 249.997 111.776 247.085C110.656 249.389 109.488 251.437 108.272 253.229C107.056 255.021 105.856 256.429 104.672 257.453C103.52 258.445 102.416 258.941 101.36 258.941C99.6641 258.941 98.3201 258.429 97.3281 257.405C96.3361 256.349 95.8401 254.381 95.8401 251.501C95.8401 250.125 95.9521 248.573 96.1761 246.845C96.4321 245.117 96.7521 243.389 97.1361 241.661C97.5201 239.933 97.9041 238.397 98.2881 237.053C98.7041 235.677 99.0721 234.653 99.3921 233.981C99.6481 233.405 99.9681 232.957 100.352 232.637C100.768 232.317 101.296 232.157 101.936 232.157C102.96 232.157 103.744 232.493 104.288 233.165C104.832 233.837 105.104 234.525 105.104 235.229C105.104 235.773 104.976 236.557 104.72 237.581C104.496 238.605 104.208 239.741 103.856 240.989C103.536 242.237 103.2 243.517 102.848 244.829C102.496 246.141 102.192 247.373 101.936 248.525C101.712 249.677 101.6 250.653 101.6 251.453C101.6 252.445 101.984 252.941 102.752 252.941C103.2 252.941 103.776 252.509 104.48 251.645C105.216 250.781 105.984 249.629 106.784 248.189C107.616 246.717 108.448 245.117 109.28 243.389C110.144 241.629 110.928 239.853 111.632 238.061C112.368 236.237 112.992 234.557 113.504 233.021C113.824 232.061 114.256 231.389 114.8 231.005C115.344 230.621 115.968 230.429 116.672 230.429C117.76 230.429 118.592 230.733 119.168 231.341C119.776 231.949 120.08 232.813 120.08 233.933C120.08 234.445 120 235.309 119.84 236.525C119.68 237.741 119.472 239.165 119.216 240.797C118.992 242.429 118.72 244.157 118.4 245.981C118.08 247.805 117.76 249.597 117.44 251.357C117.152 253.117 116.864 254.733 116.576 256.205C116.288 257.645 116.048 258.797 115.856 259.661C115.536 260.941 115.152 261.709 114.704 261.965C114.256 262.221 113.808 262.349 113.36 262.349ZM131.488 262.637C130.112 262.637 129.136 262.445 128.56 262.061C128.016 261.677 127.744 261.117 127.744 260.381C127.744 259.741 127.968 259.197 128.416 258.749C128.864 258.269 129.856 257.789 131.392 257.309C133.184 256.765 134.88 256.141 136.48 255.437C138.112 254.701 139.44 253.901 140.464 253.037C141.52 252.173 142.048 251.261 142.048 250.301C142.048 249.661 141.824 249.197 141.376 248.909C140.96 248.621 140.464 248.477 139.888 248.477C139.408 248.477 138.704 248.557 137.776 248.717C136.88 248.845 135.888 249.021 134.8 249.245C133.712 249.437 132.656 249.613 131.632 249.773C130.64 249.901 129.792 249.965 129.088 249.965C127.424 249.965 126.192 249.597 125.392 248.861C124.592 248.093 124.192 247.117 124.192 245.933C124.192 245.293 124.528 244.413 125.2 243.293C125.872 242.173 126.768 240.941 127.888 239.597C129.008 238.253 130.256 236.909 131.632 235.565C133.008 234.221 134.4 232.989 135.808 231.869C137.248 230.717 138.608 229.805 139.888 229.133C141.168 228.429 142.256 228.077 143.152 228.077C144.176 228.077 144.992 228.397 145.6 229.037C146.24 229.677 146.56 230.541 146.56 231.629C146.56 232.141 146.512 232.701 146.416 233.309C146.32 233.885 146.08 234.413 145.696 234.893C145.312 235.341 144.72 235.661 143.92 235.853C143.12 236.045 142.032 236.013 140.656 235.757C139.568 236.557 138.432 237.437 137.248 238.397C136.096 239.325 135.008 240.301 133.984 241.325C132.96 242.317 132.112 243.293 131.44 244.253C132.624 243.869 133.968 243.565 135.472 243.341C136.976 243.085 138.496 242.957 140.032 242.957C141.888 242.957 143.392 243.293 144.544 243.965C145.728 244.605 146.592 245.469 147.136 246.557C147.712 247.645 148 248.845 148 250.157C148 251.629 147.52 253.101 146.56 254.573C145.6 256.045 144.32 257.389 142.72 258.605C141.12 259.821 139.344 260.797 137.392 261.533C135.44 262.269 133.472 262.637 131.488 262.637ZM198.895 247.997C197.039 247.997 195.215 247.773 193.423 247.325C191.663 246.877 189.999 246.301 188.431 245.597C187.727 248.477 187.119 251.629 186.607 255.053C186.479 256.013 186.287 256.893 186.031 257.693C185.775 258.461 185.375 259.085 184.831 259.565C184.287 260.045 183.487 260.285 182.431 260.285C181.439 260.285 180.783 259.901 180.463 259.133C180.143 258.365 179.983 257.421 179.983 256.301C179.983 255.949 180.111 255.037 180.367 253.565C180.623 252.093 180.943 250.317 181.327 248.237C181.711 246.125 182.111 243.949 182.527 241.709C181.215 240.397 180.559 239.197 180.559 238.109C180.559 237.565 180.719 237.053 181.039 236.573C181.391 236.061 182.063 235.805 183.055 235.805C183.183 235.805 183.359 235.853 183.583 235.949C183.903 234.157 184.175 232.557 184.399 231.149C184.655 229.709 184.799 228.669 184.831 228.029C184.895 226.813 185.087 225.917 185.407 225.341C185.727 224.733 186.127 224.333 186.607 224.141C187.119 223.917 187.631 223.805 188.143 223.805C188.815 223.805 189.327 223.949 189.679 224.237C190.031 224.525 190.207 225.165 190.207 226.157C190.207 227.117 190.191 227.997 190.159 228.797C191.727 226.109 193.359 224.221 195.055 223.133C196.751 222.013 198.607 221.453 200.623 221.453C202.607 221.453 204.335 221.997 205.807 223.085C207.279 224.173 208.415 225.741 209.215 227.789C210.047 229.805 210.463 232.237 210.463 235.085C210.463 239.437 209.455 242.685 207.439 244.829C205.455 246.941 202.607 247.997 198.895 247.997ZM190.063 239.933C191.247 240.573 192.511 241.133 193.855 241.613C195.199 242.061 196.575 242.285 197.983 242.285C200.255 242.285 201.919 241.693 202.975 240.509C204.063 239.325 204.607 237.373 204.607 234.653C204.607 229.821 203.151 227.405 200.239 227.405C198.383 227.405 196.575 228.445 194.815 230.525C193.087 232.605 191.503 235.741 190.063 239.933ZM234.259 262.349C233.523 262.349 232.851 262.045 232.243 261.437C231.667 260.861 231.379 259.885 231.379 258.509C231.379 257.485 231.459 256.061 231.619 254.237C231.811 252.381 232.163 249.997 232.675 247.085C231.555 249.389 230.387 251.437 229.171 253.229C227.955 255.021 226.755 256.429 225.571 257.453C224.419 258.445 223.315 258.941 222.259 258.941C220.563 258.941 219.219 258.429 218.227 257.405C217.235 256.349 216.739 254.381 216.739 251.501C216.739 250.125 216.851 248.573 217.075 246.845C217.331 245.117 217.651 243.389 218.035 241.661C218.419 239.933 218.803 238.397 219.187 237.053C219.603 235.677 219.971 234.653 220.291 233.981C220.547 233.405 220.867 232.957 221.251 232.637C221.667 232.317 222.195 232.157 222.835 232.157C223.859 232.157 224.643 232.493 225.187 233.165C225.731 233.837 226.003 234.525 226.003 235.229C226.003 235.773 225.875 236.557 225.619 237.581C225.395 238.605 225.107 239.741 224.755 240.989C224.435 242.237 224.099 243.517 223.747 244.829C223.395 246.141 223.091 247.373 222.835 248.525C222.611 249.677 222.499 250.653 222.499 251.453C222.499 252.445 222.883 252.941 223.651 252.941C224.099 252.941 224.675 252.509 225.379 251.645C226.115 250.781 226.883 249.629 227.683 248.189C228.515 246.717 229.347 245.117 230.179 243.389C231.043 241.629 231.827 239.853 232.531 238.061C233.267 236.237 233.891 234.557 234.403 233.021C234.723 232.061 235.155 231.389 235.699 231.005C236.243 230.621 236.867 230.429 237.571 230.429C238.659 230.429 239.491 230.733 240.067 231.341C240.675 231.949 240.979 232.813 240.979 233.933C240.979 234.445 240.899 235.309 240.739 236.525C240.579 237.741 240.371 239.165 240.115 240.797C239.891 242.429 239.619 244.157 239.299 245.981C238.979 247.805 238.659 249.597 238.339 251.357C238.051 253.117 237.763 254.733 237.475 256.205C237.187 257.645 236.947 258.797 236.755 259.661C236.435 260.941 236.051 261.709 235.603 261.965C235.155 262.221 234.707 262.349 234.259 262.349ZM267.104 261.389C266.784 261.389 266.176 261.373 265.28 261.341C264.384 261.309 263.312 261.261 262.064 261.197C260.816 261.133 259.52 261.069 258.176 261.005C256.864 260.941 255.616 260.893 254.432 260.861C253.248 260.829 252.288 260.813 251.552 260.813C250.4 260.813 249.44 260.461 248.672 259.757C247.936 259.021 247.568 257.997 247.568 256.685C247.568 255.917 247.984 254.909 248.816 253.661C249.68 252.381 250.8 250.973 252.176 249.437C253.552 247.869 255.04 246.285 256.64 244.685C258.272 243.085 259.888 241.581 261.488 240.173C263.12 238.733 264.56 237.501 265.808 236.477C263.696 236.765 261.664 237.101 259.712 237.485C257.76 237.869 256.064 238.205 254.624 238.493C253.216 238.781 252.256 238.925 251.744 238.925C250.816 238.925 250.08 238.669 249.536 238.157C248.992 237.613 248.72 236.893 248.72 235.997C248.72 235.613 249.12 235.213 249.92 234.797C250.72 234.349 251.808 233.933 253.184 233.549C254.56 233.165 256.112 232.813 257.84 232.493C259.6 232.173 261.424 231.933 263.312 231.773C265.232 231.581 267.12 231.485 268.976 231.485C269.872 231.485 270.624 231.709 271.232 232.157C271.872 232.573 272.352 233.117 272.672 233.789C273.024 234.429 273.2 235.085 273.2 235.757C273.2 236.013 272.848 236.541 272.144 237.341C271.44 238.141 270.512 239.133 269.36 240.317C268.208 241.469 266.928 242.733 265.52 244.109C264.112 245.453 262.704 246.829 261.296 248.237C259.92 249.613 258.64 250.925 257.456 252.173C256.272 253.421 255.312 254.509 254.576 255.437C255.824 255.405 257.232 255.357 258.8 255.293C260.368 255.229 261.888 255.165 263.36 255.101C264.832 255.037 266.112 254.989 267.2 254.957C268.288 254.925 268.976 254.909 269.264 254.909C270.288 254.909 271.024 255.149 271.472 255.629C271.92 256.109 272.144 256.669 272.144 257.309C272.144 258.269 271.68 259.197 270.752 260.093C269.856 260.957 268.64 261.389 267.104 261.389ZM297.259 261.389C296.939 261.389 296.331 261.373 295.435 261.341C294.539 261.309 293.467 261.261 292.219 261.197C290.971 261.133 289.675 261.069 288.331 261.005C287.019 260.941 285.771 260.893 284.587 260.861C283.403 260.829 282.443 260.813 281.707 260.813C280.555 260.813 279.595 260.461 278.827 259.757C278.091 259.021 277.723 257.997 277.723 256.685C277.723 255.917 278.139 254.909 278.971 253.661C279.835 252.381 280.955 250.973 282.331 249.437C283.707 247.869 285.195 246.285 286.795 244.685C288.427 243.085 290.043 241.581 291.643 240.173C293.275 238.733 294.715 237.501 295.963 236.477C293.851 236.765 291.819 237.101 289.867 237.485C287.915 237.869 286.219 238.205 284.779 238.493C283.371 238.781 282.411 238.925 281.899 238.925C280.971 238.925 280.235 238.669 279.691 238.157C279.147 237.613 278.875 236.893 278.875 235.997C278.875 235.613 279.275 235.213 280.075 234.797C280.875 234.349 281.963 233.933 283.339 233.549C284.715 233.165 286.267 232.813 287.995 232.493C289.755 232.173 291.579 231.933 293.467 231.773C295.387 231.581 297.275 231.485 299.131 231.485C300.027 231.485 300.779 231.709 301.387 232.157C302.027 232.573 302.507 233.117 302.827 233.789C303.179 234.429 303.355 235.085 303.355 235.757C303.355 236.013 303.003 236.541 302.299 237.341C301.595 238.141 300.667 239.133 299.515 240.317C298.363 241.469 297.083 242.733 295.675 244.109C294.267 245.453 292.859 246.829 291.451 248.237C290.075 249.613 288.795 250.925 287.611 252.173C286.427 253.421 285.467 254.509 284.731 255.437C285.979 255.405 287.387 255.357 288.955 255.293C290.523 255.229 292.043 255.165 293.515 255.101C294.987 255.037 296.267 254.989 297.355 254.957C298.443 254.925 299.131 254.909 299.419 254.909C300.443 254.909 301.179 255.149 301.627 255.629C302.075 256.109 302.299 256.669 302.299 257.309C302.299 258.269 301.835 259.197 300.907 260.093C300.011 260.957 298.795 261.389 297.259 261.389ZM318.854 262.589C315.974 262.589 313.702 261.709 312.038 259.949C310.406 258.157 309.59 255.613 309.59 252.317C309.59 250.525 309.83 248.429 310.31 246.029C310.79 243.597 311.414 241.037 312.182 238.349C312.982 235.629 313.83 232.941 314.726 230.285C315.654 227.629 316.566 225.165 317.462 222.893C318.358 220.621 319.142 218.717 319.814 217.181C320.39 215.997 321.206 215.405 322.262 215.405C322.934 215.405 323.478 215.613 323.894 216.029C324.342 216.445 324.566 217.117 324.566 218.045C324.566 218.493 324.342 219.469 323.894 220.973C323.446 222.477 322.854 224.333 322.118 226.541C321.414 228.717 320.646 231.069 319.814 233.597C319.014 236.125 318.246 238.669 317.51 241.229C316.806 243.789 316.23 246.205 315.782 248.477C315.334 250.717 315.11 252.621 315.11 254.189C315.11 254.829 315.286 255.341 315.638 255.725C316.022 256.109 316.518 256.301 317.126 256.301C318.438 256.301 319.782 256.061 321.158 255.581C322.566 255.101 323.942 254.493 325.286 253.757C326.662 253.021 327.958 252.237 329.174 251.405C330.39 250.573 331.478 249.789 332.438 249.053C333.43 248.285 334.23 247.677 334.838 247.229C335.638 246.621 336.182 246.317 336.47 246.317C337.558 246.317 338.102 246.845 338.102 247.901C338.102 248.157 337.782 248.685 337.142 249.485C336.598 250.189 335.83 251.085 334.838 252.173C333.846 253.261 332.694 254.413 331.382 255.629C330.102 256.813 328.726 257.933 327.254 258.989C325.814 260.045 324.374 260.909 322.934 261.581C321.494 262.253 320.134 262.589 318.854 262.589ZM341.209 261.821C339.225 261.821 337.625 261.133 336.409 259.757C335.193 258.349 334.585 256.093 334.585 252.989C334.585 251.005 334.809 249.021 335.257 247.037C335.737 245.021 336.393 243.117 337.225 241.325C338.089 239.501 339.081 237.885 340.201 236.477C341.353 235.069 342.617 233.965 343.993 233.165C345.369 232.333 346.793 231.917 348.265 231.917C350.761 231.917 352.713 232.589 354.121 233.933C355.529 235.277 356.233 236.989 356.233 239.069C356.233 240.669 355.785 242.125 354.889 243.437C354.025 244.717 352.841 245.869 351.337 246.893C349.833 247.917 348.153 248.845 346.297 249.677C344.441 250.509 342.537 251.261 340.585 251.933C340.425 253.085 340.345 254.109 340.345 255.005C340.345 255.549 340.649 255.821 341.257 255.821C342.697 255.821 344.233 255.597 345.865 255.149C347.529 254.669 349.209 254.061 350.905 253.325C352.601 252.557 354.233 251.773 355.801 250.973C357.369 250.141 358.793 249.357 360.073 248.621C361.385 247.853 362.457 247.245 363.289 246.797C364.153 246.317 364.713 246.077 364.969 246.077C365.673 246.077 366.185 246.285 366.505 246.701C366.825 247.117 366.985 247.565 366.985 248.045C366.985 248.269 366.553 248.765 365.689 249.533C364.857 250.301 363.705 251.213 362.233 252.269C360.793 253.293 359.161 254.365 357.337 255.485C355.545 256.573 353.673 257.613 351.721 258.605C349.801 259.565 347.929 260.333 346.105 260.909C344.313 261.517 342.681 261.821 341.209 261.821ZM341.401 247.661C342.713 246.893 344.009 246.093 345.289 245.261C346.601 244.397 347.689 243.437 348.553 242.381C349.417 241.293 349.849 240.029 349.849 238.589C349.849 238.173 349.737 237.901 349.513 237.773C349.289 237.613 348.969 237.533 348.553 237.533C347.433 237.533 346.409 238.029 345.481 239.021C344.585 240.013 343.785 241.293 343.081 242.861C342.409 244.397 341.849 245.997 341.401 247.661Z" fill="black"/>
<defs>
<filter id="filter0_d_55_240" x="36" y="0" width="134" height="192" filterUnits="userSpaceOnUse" color-interpolation-filters="sRGB">
<feFlood flood-opacity="0" result="BackgroundImageFix"/>
<feColorMatrix in="SourceAlpha" type="matrix" values="0 0 0 0 0 0 0 0 0 0 0 0 0 0 0 0 0 0 127 0" result="hardAlpha"/>
<feOffset dy="4"/>
<feGaussianBlur stdDeviation="2"/>
<feComposite in2="hardAlpha" operator="out"/>
<feColorMatrix type="matrix" values="0 0 0 0 0 0 0 0 0 0 0 0 0 0 0 0 0 0 0.1 0"/>
<feBlend mode="normal" in2="BackgroundImageFix" result="effect1_dropShadow_55_240"/>
<feBlend mode="normal" in="SourceGraphic" in2="effect1_dropShadow_55_240" result="shape"/>
</filter>
<filter id="filter1_d_55_240" x="162" y="0" width="134" height="192" filterUnits="userSpaceOnUse" color-interpolation-filters="sRGB">
<feFlood flood-opacity="0" result="BackgroundImageFix"/>
<feColorMatrix in="SourceAlpha" type="matrix" values="0 0 0 0 0 0 0 0 0 0 0 0 0 0 0 0 0 0 127 0" result="hardAlpha"/>
<feOffset dy="4"/>
<feGaussianBlur stdDeviation="2"/>
<feComposite in2="hardAlpha" operator="out"/>
<feColorMatrix type="matrix" values="0 0 0 0 0 0 0 0 0 0 0 0 0 0 0 0 0 0 0.1 0"/>
<feBlend mode="normal" in2="BackgroundImageFix" result="effect1_dropShadow_55_240"/>
<feBlend mode="normal" in="SourceGraphic" in2="effect1_dropShadow_55_240" result="shape"/>
</filter>
</defs>
</svg>
